<mxfile host="app.diagrams.net" modified="2023-12-19T04:48:30.331Z" agent="Mozilla/5.0 (Windows NT 10.0; Win64; x64) AppleWebKit/537.36 (KHTML, like Gecko) Chrome/120.0.0.0 Safari/537.36" etag="jfnCGCdzBHDB8A8qjw2k" version="22.1.11" type="device" pages="11">
  <diagram name="로그인" id="B3ncaKDeymfIEteEpRcl">
    <mxGraphModel dx="1674" dy="738" grid="1" gridSize="10" guides="1" tooltips="1" connect="1" arrows="1" fold="1" page="1" pageScale="1" pageWidth="827" pageHeight="1169" math="0" shadow="0">
      <root>
        <mxCell id="0" />
        <mxCell id="1" parent="0" />
        <mxCell id="hNa1gzyxdXaj1cqmfSS9-1" value="사용자" style="shape=umlActor;verticalLabelPosition=bottom;verticalAlign=top;html=1;" parent="1" vertex="1">
          <mxGeometry x="40" y="240" width="30" height="60" as="geometry" />
        </mxCell>
        <mxCell id="hNa1gzyxdXaj1cqmfSS9-3" value="회원가입" style="ellipse;whiteSpace=wrap;html=1;" parent="1" vertex="1">
          <mxGeometry x="210" y="180" width="140" height="70" as="geometry" />
        </mxCell>
        <mxCell id="hNa1gzyxdXaj1cqmfSS9-4" value="로그인/로그아웃" style="ellipse;whiteSpace=wrap;html=1;" parent="1" vertex="1">
          <mxGeometry x="230" y="310" width="140" height="70" as="geometry" />
        </mxCell>
        <mxCell id="KSZYbzTFT_yB7CzEiu2W-1" value="SNS 계정을 이용한 회원가입" style="ellipse;whiteSpace=wrap;html=1;" parent="1" vertex="1">
          <mxGeometry x="140" y="50" width="140" height="70" as="geometry" />
        </mxCell>
        <mxCell id="KSZYbzTFT_yB7CzEiu2W-2" value="이메일과 비밀번호 회원가입" style="ellipse;whiteSpace=wrap;html=1;" parent="1" vertex="1">
          <mxGeometry x="290" y="50" width="140" height="70" as="geometry" />
        </mxCell>
        <mxCell id="KSZYbzTFT_yB7CzEiu2W-4" value="정보 저장" style="ellipse;whiteSpace=wrap;html=1;" parent="1" vertex="1">
          <mxGeometry x="780" y="80" width="140" height="70" as="geometry" />
        </mxCell>
        <mxCell id="KSZYbzTFT_yB7CzEiu2W-5" value="" style="endArrow=open;endFill=1;endSize=12;html=1;rounded=0;entryX=-0.014;entryY=0.631;entryDx=0;entryDy=0;entryPerimeter=0;" parent="1" target="hNa1gzyxdXaj1cqmfSS9-3" edge="1">
          <mxGeometry width="160" relative="1" as="geometry">
            <mxPoint x="80" y="270" as="sourcePoint" />
            <mxPoint x="520" y="380" as="targetPoint" />
          </mxGeometry>
        </mxCell>
        <mxCell id="KSZYbzTFT_yB7CzEiu2W-6" value="" style="endArrow=open;endFill=1;endSize=12;html=1;rounded=0;entryX=0;entryY=0.5;entryDx=0;entryDy=0;" parent="1" target="hNa1gzyxdXaj1cqmfSS9-4" edge="1">
          <mxGeometry width="160" relative="1" as="geometry">
            <mxPoint x="80" y="270" as="sourcePoint" />
            <mxPoint x="218" y="234" as="targetPoint" />
          </mxGeometry>
        </mxCell>
        <mxCell id="KSZYbzTFT_yB7CzEiu2W-10" value="&amp;lt;&amp;lt;include&amp;gt;&amp;gt;" style="html=1;verticalAlign=bottom;endArrow=open;dashed=1;endSize=8;curved=0;rounded=0;exitX=0.971;exitY=0.371;exitDx=0;exitDy=0;exitPerimeter=0;entryX=0.409;entryY=1.017;entryDx=0;entryDy=0;entryPerimeter=0;" parent="1" source="hNa1gzyxdXaj1cqmfSS9-3" target="KSZYbzTFT_yB7CzEiu2W-2" edge="1">
          <mxGeometry relative="1" as="geometry">
            <mxPoint x="660" y="280" as="sourcePoint" />
            <mxPoint x="580" y="280" as="targetPoint" />
          </mxGeometry>
        </mxCell>
        <mxCell id="KSZYbzTFT_yB7CzEiu2W-11" value="&amp;lt;&amp;lt;include&amp;gt;&amp;gt;" style="html=1;verticalAlign=bottom;endArrow=open;dashed=1;endSize=8;curved=0;rounded=0;exitX=-0.006;exitY=0.394;exitDx=0;exitDy=0;entryX=0.5;entryY=1;entryDx=0;entryDy=0;exitPerimeter=0;" parent="1" source="hNa1gzyxdXaj1cqmfSS9-3" target="KSZYbzTFT_yB7CzEiu2W-1" edge="1">
          <mxGeometry relative="1" as="geometry">
            <mxPoint x="356" y="216" as="sourcePoint" />
            <mxPoint x="387" y="171" as="targetPoint" />
          </mxGeometry>
        </mxCell>
        <mxCell id="KSZYbzTFT_yB7CzEiu2W-12" value="초기 정보 입력" style="ellipse;whiteSpace=wrap;html=1;" parent="1" vertex="1">
          <mxGeometry x="620" y="10" width="140" height="70" as="geometry" />
        </mxCell>
        <mxCell id="KSZYbzTFT_yB7CzEiu2W-13" value="당뇨 관련 정보 입력" style="ellipse;whiteSpace=wrap;html=1;" parent="1" vertex="1">
          <mxGeometry x="660" y="170" width="140" height="70" as="geometry" />
        </mxCell>
        <mxCell id="KSZYbzTFT_yB7CzEiu2W-14" value="&amp;lt;&amp;lt;include&amp;gt;&amp;gt;" style="html=1;verticalAlign=bottom;endArrow=open;dashed=1;endSize=8;curved=0;rounded=0;exitX=1;exitY=0.5;exitDx=0;exitDy=0;" parent="1" source="hNa1gzyxdXaj1cqmfSS9-3" target="KSZYbzTFT_yB7CzEiu2W-15" edge="1">
          <mxGeometry relative="1" as="geometry">
            <mxPoint x="356" y="216" as="sourcePoint" />
            <mxPoint x="450" y="210" as="targetPoint" />
          </mxGeometry>
        </mxCell>
        <mxCell id="KSZYbzTFT_yB7CzEiu2W-15" value="정보 입력" style="ellipse;whiteSpace=wrap;html=1;" parent="1" vertex="1">
          <mxGeometry x="450" y="170" width="140" height="70" as="geometry" />
        </mxCell>
        <mxCell id="KSZYbzTFT_yB7CzEiu2W-17" value="&amp;lt;&amp;lt;include&amp;gt;&amp;gt;" style="html=1;verticalAlign=bottom;endArrow=open;dashed=1;endSize=8;curved=0;rounded=0;entryX=0;entryY=0.5;entryDx=0;entryDy=0;exitX=1;exitY=0.5;exitDx=0;exitDy=0;" parent="1" source="KSZYbzTFT_yB7CzEiu2W-15" target="KSZYbzTFT_yB7CzEiu2W-13" edge="1">
          <mxGeometry relative="1" as="geometry">
            <mxPoint x="530" y="240" as="sourcePoint" />
            <mxPoint x="460" y="219" as="targetPoint" />
          </mxGeometry>
        </mxCell>
        <mxCell id="KSZYbzTFT_yB7CzEiu2W-18" value="&amp;lt;&amp;lt;include&amp;gt;&amp;gt;" style="html=1;verticalAlign=bottom;endArrow=open;dashed=1;endSize=8;curved=0;rounded=0;entryX=0.134;entryY=0.966;entryDx=0;entryDy=0;exitX=0.5;exitY=0;exitDx=0;exitDy=0;entryPerimeter=0;" parent="1" source="KSZYbzTFT_yB7CzEiu2W-15" target="KSZYbzTFT_yB7CzEiu2W-12" edge="1">
          <mxGeometry relative="1" as="geometry">
            <mxPoint x="540" y="250" as="sourcePoint" />
            <mxPoint x="650" y="255" as="targetPoint" />
          </mxGeometry>
        </mxCell>
        <mxCell id="ZrnHvWs9LZUAr0D2Ho3M-1" value="&amp;lt;&amp;lt;include&amp;gt;&amp;gt;" style="html=1;verticalAlign=bottom;endArrow=open;dashed=1;endSize=8;curved=0;rounded=0;exitX=0.903;exitY=0.16;exitDx=0;exitDy=0;entryX=0;entryY=0.5;entryDx=0;entryDy=0;exitPerimeter=0;" parent="1" source="KSZYbzTFT_yB7CzEiu2W-15" target="KSZYbzTFT_yB7CzEiu2W-4" edge="1">
          <mxGeometry relative="1" as="geometry">
            <mxPoint x="360" y="225" as="sourcePoint" />
            <mxPoint x="460" y="219" as="targetPoint" />
          </mxGeometry>
        </mxCell>
      </root>
    </mxGraphModel>
  </diagram>
  <diagram id="bz1Dqpl1jQuRb7KRiLhw" name="식단 분석 기능">
    <mxGraphModel dx="1290" dy="522" grid="1" gridSize="10" guides="1" tooltips="1" connect="1" arrows="1" fold="1" page="1" pageScale="1" pageWidth="827" pageHeight="1169" math="0" shadow="0">
      <root>
        <mxCell id="0" />
        <mxCell id="1" parent="0" />
        <mxCell id="rIWW2CCqA1FA7_lYQgDw-1" value="Actor" style="shape=umlActor;verticalLabelPosition=bottom;verticalAlign=top;html=1;" parent="1" vertex="1">
          <mxGeometry x="120" y="840" width="30" height="60" as="geometry" />
        </mxCell>
        <mxCell id="rIWW2CCqA1FA7_lYQgDw-2" value="식단 메뉴 인식" style="ellipse;whiteSpace=wrap;html=1;" parent="1" vertex="1">
          <mxGeometry x="280" y="840" width="140" height="70" as="geometry" />
        </mxCell>
        <mxCell id="rIWW2CCqA1FA7_lYQgDw-3" value="메뉴 수동 입력" style="ellipse;whiteSpace=wrap;html=1;" parent="1" vertex="1">
          <mxGeometry x="260" y="1000" width="140" height="70" as="geometry" />
        </mxCell>
        <mxCell id="rIWW2CCqA1FA7_lYQgDw-4" value="시간 표시" style="ellipse;whiteSpace=wrap;html=1;" parent="1" vertex="1">
          <mxGeometry x="510" y="810" width="140" height="70" as="geometry" />
        </mxCell>
        <mxCell id="qEBSvU_HVNgb2QsFLnSc-1" value="" style="endArrow=open;endFill=1;endSize=12;html=1;rounded=0;entryX=0;entryY=0.5;entryDx=0;entryDy=0;" parent="1" target="rIWW2CCqA1FA7_lYQgDw-2" edge="1">
          <mxGeometry width="160" relative="1" as="geometry">
            <mxPoint x="150" y="880" as="sourcePoint" />
            <mxPoint x="300" y="955" as="targetPoint" />
          </mxGeometry>
        </mxCell>
        <mxCell id="qEBSvU_HVNgb2QsFLnSc-2" value="" style="endArrow=open;endFill=1;endSize=12;html=1;rounded=0;entryX=0.051;entryY=0.354;entryDx=0;entryDy=0;entryPerimeter=0;" parent="1" edge="1">
          <mxGeometry width="160" relative="1" as="geometry">
            <mxPoint x="150" y="880" as="sourcePoint" />
            <mxPoint x="267.1400000000001" y="1024.78" as="targetPoint" />
          </mxGeometry>
        </mxCell>
        <mxCell id="tr2Uqi-kcFJaU-_8x3fm-2" value="영양소 정보 분석 제공" style="ellipse;whiteSpace=wrap;html=1;" parent="1" vertex="1">
          <mxGeometry x="510" y="900" width="140" height="70" as="geometry" />
        </mxCell>
        <mxCell id="tr2Uqi-kcFJaU-_8x3fm-3" value="&amp;lt;&amp;lt;include&amp;gt;&amp;gt;" style="html=1;verticalAlign=bottom;endArrow=open;dashed=1;endSize=8;curved=0;rounded=0;exitX=0.923;exitY=0.749;exitDx=0;exitDy=0;exitPerimeter=0;entryX=0.014;entryY=0.371;entryDx=0;entryDy=0;entryPerimeter=0;" parent="1" source="rIWW2CCqA1FA7_lYQgDw-2" target="tr2Uqi-kcFJaU-_8x3fm-2" edge="1">
          <mxGeometry relative="1" as="geometry">
            <mxPoint x="350" y="926" as="sourcePoint" />
            <mxPoint x="492" y="934" as="targetPoint" />
          </mxGeometry>
        </mxCell>
        <mxCell id="tr2Uqi-kcFJaU-_8x3fm-4" value="&amp;lt;&amp;lt;include&amp;gt;&amp;gt;" style="html=1;verticalAlign=bottom;endArrow=open;dashed=1;endSize=8;curved=0;rounded=0;exitX=0.991;exitY=0.291;exitDx=0;exitDy=0;exitPerimeter=0;entryX=0;entryY=0.5;entryDx=0;entryDy=0;" parent="1" source="rIWW2CCqA1FA7_lYQgDw-2" target="rIWW2CCqA1FA7_lYQgDw-4" edge="1">
          <mxGeometry relative="1" as="geometry">
            <mxPoint x="419" y="902" as="sourcePoint" />
            <mxPoint x="512" y="936" as="targetPoint" />
            <Array as="points" />
          </mxGeometry>
        </mxCell>
        <mxCell id="5h9zgU6Zhq9SH1IJbuQC-1" value="&amp;lt;&amp;lt;extend&amp;gt;&amp;gt;" style="html=1;verticalAlign=bottom;endArrow=open;dashed=1;endSize=8;curved=0;rounded=0;exitX=0.5;exitY=1;exitDx=0;exitDy=0;entryX=0.5;entryY=0;entryDx=0;entryDy=0;" parent="1" source="rIWW2CCqA1FA7_lYQgDw-2" target="rIWW2CCqA1FA7_lYQgDw-3" edge="1">
          <mxGeometry relative="1" as="geometry">
            <mxPoint x="518" y="917" as="sourcePoint" />
            <mxPoint x="309" y="970" as="targetPoint" />
          </mxGeometry>
        </mxCell>
      </root>
    </mxGraphModel>
  </diagram>
  <diagram id="j7sjMc4-xQWkJP3BwBpr" name="데이터 시각화">
    <mxGraphModel dx="1290" dy="522" grid="1" gridSize="10" guides="1" tooltips="1" connect="1" arrows="1" fold="1" page="1" pageScale="1" pageWidth="827" pageHeight="1169" math="0" shadow="0">
      <root>
        <mxCell id="0" />
        <mxCell id="1" parent="0" />
        <mxCell id="WjU6pjKIaoMwnh71Ik1N-1" value="Actor" style="shape=umlActor;verticalLabelPosition=bottom;verticalAlign=top;html=1;" parent="1" vertex="1">
          <mxGeometry x="180" y="240" width="30" height="60" as="geometry" />
        </mxCell>
        <mxCell id="WjU6pjKIaoMwnh71Ik1N-2" value="데이터 시각화" style="ellipse;whiteSpace=wrap;html=1;" parent="1" vertex="1">
          <mxGeometry x="300" y="240" width="140" height="70" as="geometry" />
        </mxCell>
        <mxCell id="WjU6pjKIaoMwnh71Ik1N-3" value="체중 변화량" style="ellipse;whiteSpace=wrap;html=1;" parent="1" vertex="1">
          <mxGeometry x="520" y="20" width="140" height="70" as="geometry" />
        </mxCell>
        <mxCell id="WjU6pjKIaoMwnh71Ik1N-4" value="일별 섭취 칼로리 변화량" style="ellipse;whiteSpace=wrap;html=1;" parent="1" vertex="1">
          <mxGeometry x="520" y="320" width="140" height="70" as="geometry" />
        </mxCell>
        <mxCell id="WjU6pjKIaoMwnh71Ik1N-5" value="영양소별 섭취 변화량" style="ellipse;whiteSpace=wrap;html=1;" parent="1" vertex="1">
          <mxGeometry x="520" y="120" width="140" height="70" as="geometry" />
        </mxCell>
        <mxCell id="WjU6pjKIaoMwnh71Ik1N-6" value="혈당 변화량" style="ellipse;whiteSpace=wrap;html=1;" parent="1" vertex="1">
          <mxGeometry x="520" y="220" width="140" height="70" as="geometry" />
        </mxCell>
        <mxCell id="WjU6pjKIaoMwnh71Ik1N-7" value="식단 이미지(달력)" style="ellipse;whiteSpace=wrap;html=1;" parent="1" vertex="1">
          <mxGeometry x="520" y="420" width="140" height="70" as="geometry" />
        </mxCell>
        <mxCell id="W-F9-3sQJ38-TTn0AruW-1" value="" style="endArrow=open;endFill=1;endSize=12;html=1;rounded=0;entryX=0;entryY=0.5;entryDx=0;entryDy=0;" parent="1" source="WjU6pjKIaoMwnh71Ik1N-1" target="WjU6pjKIaoMwnh71Ik1N-2" edge="1">
          <mxGeometry width="160" relative="1" as="geometry">
            <mxPoint x="210" y="445" as="sourcePoint" />
            <mxPoint x="340" y="440" as="targetPoint" />
          </mxGeometry>
        </mxCell>
        <mxCell id="LT1Eq2N_nY5V6vJca9Hl-1" value="&amp;lt;&amp;lt;include&amp;gt;&amp;gt;" style="html=1;verticalAlign=bottom;endArrow=open;dashed=1;endSize=8;curved=0;rounded=0;exitX=1;exitY=0.5;exitDx=0;exitDy=0;entryX=0;entryY=0.5;entryDx=0;entryDy=0;" parent="1" source="WjU6pjKIaoMwnh71Ik1N-2" target="WjU6pjKIaoMwnh71Ik1N-7" edge="1">
          <mxGeometry relative="1" as="geometry">
            <mxPoint x="420.34000000000003" y="540" as="sourcePoint" />
            <mxPoint x="420.0000000000001" y="624.4200000000001" as="targetPoint" />
          </mxGeometry>
        </mxCell>
        <mxCell id="LT1Eq2N_nY5V6vJca9Hl-2" value="&amp;lt;&amp;lt;include&amp;gt;&amp;gt;" style="html=1;verticalAlign=bottom;endArrow=open;dashed=1;endSize=8;curved=0;rounded=0;exitX=1;exitY=0.5;exitDx=0;exitDy=0;entryX=0;entryY=0.5;entryDx=0;entryDy=0;" parent="1" source="WjU6pjKIaoMwnh71Ik1N-2" target="WjU6pjKIaoMwnh71Ik1N-4" edge="1">
          <mxGeometry relative="1" as="geometry">
            <mxPoint x="450" y="285" as="sourcePoint" />
            <mxPoint x="530" y="465" as="targetPoint" />
          </mxGeometry>
        </mxCell>
        <mxCell id="LT1Eq2N_nY5V6vJca9Hl-3" value="&amp;lt;&amp;lt;include&amp;gt;&amp;gt;" style="html=1;verticalAlign=bottom;endArrow=open;dashed=1;endSize=8;curved=0;rounded=0;exitX=1;exitY=0.5;exitDx=0;exitDy=0;entryX=0;entryY=0.5;entryDx=0;entryDy=0;" parent="1" source="WjU6pjKIaoMwnh71Ik1N-2" target="WjU6pjKIaoMwnh71Ik1N-6" edge="1">
          <mxGeometry relative="1" as="geometry">
            <mxPoint x="450" y="285" as="sourcePoint" />
            <mxPoint x="520" y="310" as="targetPoint" />
          </mxGeometry>
        </mxCell>
        <mxCell id="LT1Eq2N_nY5V6vJca9Hl-4" value="&amp;lt;&amp;lt;include&amp;gt;&amp;gt;" style="html=1;verticalAlign=bottom;endArrow=open;dashed=1;endSize=8;curved=0;rounded=0;exitX=1;exitY=0.5;exitDx=0;exitDy=0;entryX=0;entryY=0.5;entryDx=0;entryDy=0;" parent="1" source="WjU6pjKIaoMwnh71Ik1N-2" target="WjU6pjKIaoMwnh71Ik1N-5" edge="1">
          <mxGeometry relative="1" as="geometry">
            <mxPoint x="450" y="285" as="sourcePoint" />
            <mxPoint x="530" y="265" as="targetPoint" />
          </mxGeometry>
        </mxCell>
        <mxCell id="LT1Eq2N_nY5V6vJca9Hl-5" value="&amp;lt;&amp;lt;include&amp;gt;&amp;gt;" style="html=1;verticalAlign=bottom;endArrow=open;dashed=1;endSize=8;curved=0;rounded=0;exitX=1;exitY=0.5;exitDx=0;exitDy=0;entryX=0;entryY=0.5;entryDx=0;entryDy=0;" parent="1" source="WjU6pjKIaoMwnh71Ik1N-2" target="WjU6pjKIaoMwnh71Ik1N-3" edge="1">
          <mxGeometry relative="1" as="geometry">
            <mxPoint x="450" y="285" as="sourcePoint" />
            <mxPoint x="530" y="165" as="targetPoint" />
          </mxGeometry>
        </mxCell>
      </root>
    </mxGraphModel>
  </diagram>
  <diagram id="TiAiUiFuZMlkwtoEthCg" name="당뇨 관련">
    <mxGraphModel dx="1290" dy="522" grid="1" gridSize="10" guides="1" tooltips="1" connect="1" arrows="1" fold="1" page="1" pageScale="1" pageWidth="827" pageHeight="1169" math="0" shadow="0">
      <root>
        <mxCell id="0" />
        <mxCell id="1" parent="0" />
        <mxCell id="mH-_tNa2TAdGYJsxXz23-1" value="Actor" style="shape=umlActor;verticalLabelPosition=bottom;verticalAlign=top;html=1;" parent="1" vertex="1">
          <mxGeometry x="160" y="440" width="30" height="60" as="geometry" />
        </mxCell>
        <mxCell id="mH-_tNa2TAdGYJsxXz23-2" value="기록 기능" style="ellipse;whiteSpace=wrap;html=1;" parent="1" vertex="1">
          <mxGeometry x="280" y="440" width="140" height="70" as="geometry" />
        </mxCell>
        <mxCell id="mH-_tNa2TAdGYJsxXz23-3" value="" style="endArrow=open;endFill=1;endSize=12;html=1;rounded=0;entryX=0;entryY=0.5;entryDx=0;entryDy=0;" parent="1" source="mH-_tNa2TAdGYJsxXz23-1" target="mH-_tNa2TAdGYJsxXz23-2" edge="1">
          <mxGeometry width="160" relative="1" as="geometry">
            <mxPoint x="190" y="645" as="sourcePoint" />
            <mxPoint x="320" y="640" as="targetPoint" />
          </mxGeometry>
        </mxCell>
        <mxCell id="mH-_tNa2TAdGYJsxXz23-4" value="&amp;lt;&amp;lt;include&amp;gt;&amp;gt;" style="html=1;verticalAlign=bottom;endArrow=open;dashed=1;endSize=8;curved=0;rounded=0;exitX=1;exitY=0.5;exitDx=0;exitDy=0;entryX=0;entryY=0.5;entryDx=0;entryDy=0;" parent="1" source="mH-_tNa2TAdGYJsxXz23-2" edge="1">
          <mxGeometry relative="1" as="geometry">
            <mxPoint x="430" y="485" as="sourcePoint" />
            <mxPoint x="500" y="455" as="targetPoint" />
          </mxGeometry>
        </mxCell>
        <mxCell id="mH-_tNa2TAdGYJsxXz23-5" value="메모?" style="ellipse;whiteSpace=wrap;html=1;" parent="1" vertex="1">
          <mxGeometry x="310" y="290" width="140" height="70" as="geometry" />
        </mxCell>
        <mxCell id="mH-_tNa2TAdGYJsxXz23-6" value="당화혈색소 기록" style="ellipse;whiteSpace=wrap;html=1;" parent="1" vertex="1">
          <mxGeometry x="500" y="410" width="140" height="70" as="geometry" />
        </mxCell>
        <mxCell id="mH-_tNa2TAdGYJsxXz23-7" value="혈당 기록" style="ellipse;whiteSpace=wrap;html=1;" parent="1" vertex="1">
          <mxGeometry x="500" y="500" width="140" height="70" as="geometry" />
        </mxCell>
        <mxCell id="mH-_tNa2TAdGYJsxXz23-8" value="&amp;lt;&amp;lt;include&amp;gt;&amp;gt;" style="html=1;verticalAlign=bottom;endArrow=open;dashed=1;endSize=8;curved=0;rounded=0;exitX=0.923;exitY=0.897;exitDx=0;exitDy=0;entryX=0;entryY=0.5;entryDx=0;entryDy=0;exitPerimeter=0;" parent="1" source="mH-_tNa2TAdGYJsxXz23-2" target="mH-_tNa2TAdGYJsxXz23-7" edge="1">
          <mxGeometry x="0.1131" y="1" relative="1" as="geometry">
            <mxPoint x="430" y="485" as="sourcePoint" />
            <mxPoint x="510" y="465" as="targetPoint" />
            <mxPoint as="offset" />
          </mxGeometry>
        </mxCell>
        <mxCell id="mH-_tNa2TAdGYJsxXz23-10" value="이상 혈당 경고" style="ellipse;whiteSpace=wrap;html=1;" parent="1" vertex="1">
          <mxGeometry x="760" y="550" width="140" height="70" as="geometry" />
        </mxCell>
        <mxCell id="mH-_tNa2TAdGYJsxXz23-12" value="정보 저장" style="ellipse;whiteSpace=wrap;html=1;" parent="1" vertex="1">
          <mxGeometry x="740" y="400" width="140" height="70" as="geometry" />
        </mxCell>
        <mxCell id="VjpRibHDu0_abk8wVbXs-1" value="&amp;lt;&amp;lt;extend&amp;gt;&amp;gt;" style="html=1;verticalAlign=bottom;endArrow=open;dashed=1;endSize=8;curved=0;rounded=0;exitX=0;exitY=0.5;exitDx=0;exitDy=0;entryX=0.997;entryY=0.389;entryDx=0;entryDy=0;entryPerimeter=0;" parent="1" source="mH-_tNa2TAdGYJsxXz23-12" target="mH-_tNa2TAdGYJsxXz23-6" edge="1">
          <mxGeometry relative="1" as="geometry">
            <mxPoint x="788" y="132" as="sourcePoint" />
            <mxPoint x="579" y="185" as="targetPoint" />
          </mxGeometry>
        </mxCell>
        <mxCell id="VjpRibHDu0_abk8wVbXs-2" value="&amp;lt;&amp;lt;extend&amp;gt;&amp;gt;" style="html=1;verticalAlign=bottom;endArrow=open;dashed=1;endSize=8;curved=0;rounded=0;exitX=0;exitY=0.5;exitDx=0;exitDy=0;entryX=1;entryY=0;entryDx=0;entryDy=0;" parent="1" source="mH-_tNa2TAdGYJsxXz23-12" target="mH-_tNa2TAdGYJsxXz23-7" edge="1">
          <mxGeometry relative="1" as="geometry">
            <mxPoint x="730" y="445" as="sourcePoint" />
            <mxPoint x="650" y="447" as="targetPoint" />
          </mxGeometry>
        </mxCell>
        <mxCell id="VjpRibHDu0_abk8wVbXs-3" value="복용 약품 기록" style="ellipse;whiteSpace=wrap;html=1;" parent="1" vertex="1">
          <mxGeometry x="500" y="330" width="140" height="70" as="geometry" />
        </mxCell>
        <mxCell id="VjpRibHDu0_abk8wVbXs-4" value="&amp;lt;&amp;lt;extend&amp;gt;&amp;gt;" style="html=1;verticalAlign=bottom;endArrow=open;dashed=1;endSize=8;curved=0;rounded=0;exitX=0;exitY=0.5;exitDx=0;exitDy=0;entryX=0.957;entryY=0.394;entryDx=0;entryDy=0;entryPerimeter=0;" parent="1" source="mH-_tNa2TAdGYJsxXz23-12" target="VjpRibHDu0_abk8wVbXs-3" edge="1">
          <mxGeometry relative="1" as="geometry">
            <mxPoint x="750" y="445" as="sourcePoint" />
            <mxPoint x="629" y="520" as="targetPoint" />
          </mxGeometry>
        </mxCell>
        <mxCell id="VjpRibHDu0_abk8wVbXs-5" value="&amp;lt;&amp;lt;include&amp;gt;&amp;gt;" style="html=1;verticalAlign=bottom;endArrow=open;dashed=1;endSize=8;curved=0;rounded=0;exitX=1;exitY=0;exitDx=0;exitDy=0;entryX=0;entryY=0.5;entryDx=0;entryDy=0;" parent="1" source="mH-_tNa2TAdGYJsxXz23-2" target="VjpRibHDu0_abk8wVbXs-3" edge="1">
          <mxGeometry relative="1" as="geometry">
            <mxPoint x="430" y="485" as="sourcePoint" />
            <mxPoint x="510" y="465" as="targetPoint" />
          </mxGeometry>
        </mxCell>
        <mxCell id="pL_QpckegdOJWHaCLfNZ-1" value="&amp;lt;&amp;lt;extend&amp;gt;&amp;gt;" style="html=1;verticalAlign=bottom;endArrow=open;dashed=1;endSize=8;curved=0;rounded=0;exitX=1.02;exitY=0.6;exitDx=0;exitDy=0;entryX=0;entryY=0.5;entryDx=0;entryDy=0;exitPerimeter=0;" parent="1" source="mH-_tNa2TAdGYJsxXz23-7" target="mH-_tNa2TAdGYJsxXz23-10" edge="1">
          <mxGeometry relative="1" as="geometry">
            <mxPoint x="750" y="445" as="sourcePoint" />
            <mxPoint x="629" y="520" as="targetPoint" />
          </mxGeometry>
        </mxCell>
      </root>
    </mxGraphModel>
  </diagram>
  <diagram id="4Zr3ZtJi7zcbZICcdaH9" name="챗봇">
    <mxGraphModel dx="1290" dy="522" grid="1" gridSize="10" guides="1" tooltips="1" connect="1" arrows="1" fold="1" page="1" pageScale="1" pageWidth="827" pageHeight="1169" math="0" shadow="0">
      <root>
        <mxCell id="0" />
        <mxCell id="1" parent="0" />
      </root>
    </mxGraphModel>
  </diagram>
  <diagram id="hVsWtlCJ0BEwTXYFqBBF" name="환경 설정">
    <mxGraphModel dx="1290" dy="522" grid="1" gridSize="10" guides="1" tooltips="1" connect="1" arrows="1" fold="1" page="1" pageScale="1" pageWidth="827" pageHeight="1169" math="0" shadow="0">
      <root>
        <mxCell id="0" />
        <mxCell id="1" parent="0" />
        <mxCell id="YAIsz54ilgB3b6Jyin5Q-1" value="정보 수정" style="ellipse;whiteSpace=wrap;html=1;" parent="1" vertex="1">
          <mxGeometry x="310" y="280" width="140" height="70" as="geometry" />
        </mxCell>
        <mxCell id="f7JrW1_FTYY-7bcPtn3a-1" value="Actor" style="shape=umlActor;verticalLabelPosition=bottom;verticalAlign=top;html=1;" parent="1" vertex="1">
          <mxGeometry x="190" y="285" width="30" height="60" as="geometry" />
        </mxCell>
        <mxCell id="rII-ypg3opVZYluATZX3-1" value="" style="endArrow=open;endFill=1;endSize=12;html=1;rounded=0;entryX=0;entryY=0.5;entryDx=0;entryDy=0;" parent="1" target="ZLZ6x9rpZW6JMdWh9and-2" edge="1">
          <mxGeometry width="160" relative="1" as="geometry">
            <mxPoint x="220" y="313" as="sourcePoint" />
            <mxPoint x="310" y="317" as="targetPoint" />
          </mxGeometry>
        </mxCell>
        <mxCell id="ZLZ6x9rpZW6JMdWh9and-1" value="알림 수신 설정" style="ellipse;whiteSpace=wrap;html=1;" parent="1" vertex="1">
          <mxGeometry x="310" y="180" width="140" height="70" as="geometry" />
        </mxCell>
        <mxCell id="ZLZ6x9rpZW6JMdWh9and-2" value="회원탈퇴" style="ellipse;whiteSpace=wrap;html=1;" parent="1" vertex="1">
          <mxGeometry x="310" y="410" width="140" height="70" as="geometry" />
        </mxCell>
        <mxCell id="ZLZ6x9rpZW6JMdWh9and-3" value="" style="endArrow=open;endFill=1;endSize=12;html=1;rounded=0;entryX=0;entryY=0.5;entryDx=0;entryDy=0;" parent="1" source="f7JrW1_FTYY-7bcPtn3a-1" target="YAIsz54ilgB3b6Jyin5Q-1" edge="1">
          <mxGeometry width="160" relative="1" as="geometry">
            <mxPoint x="230" y="323" as="sourcePoint" />
            <mxPoint x="320" y="455" as="targetPoint" />
          </mxGeometry>
        </mxCell>
        <mxCell id="ZLZ6x9rpZW6JMdWh9and-4" value="" style="endArrow=open;endFill=1;endSize=12;html=1;rounded=0;entryX=0;entryY=0.5;entryDx=0;entryDy=0;" parent="1" target="ZLZ6x9rpZW6JMdWh9and-1" edge="1">
          <mxGeometry width="160" relative="1" as="geometry">
            <mxPoint x="220" y="320" as="sourcePoint" />
            <mxPoint x="320" y="325" as="targetPoint" />
          </mxGeometry>
        </mxCell>
        <mxCell id="ZLZ6x9rpZW6JMdWh9and-5" value="db 정보 수정" style="ellipse;whiteSpace=wrap;html=1;" parent="1" vertex="1">
          <mxGeometry x="520" y="450" width="140" height="70" as="geometry" />
        </mxCell>
        <mxCell id="tnhfJ-DYFjJ0KOlyIkgA-2" value="닉네임/이메일 수정" style="ellipse;whiteSpace=wrap;html=1;" parent="1" vertex="1">
          <mxGeometry x="500" y="180" width="140" height="70" as="geometry" />
        </mxCell>
        <mxCell id="tnhfJ-DYFjJ0KOlyIkgA-3" value="개인정보, 건강정보, 활동량 변경" style="ellipse;whiteSpace=wrap;html=1;" parent="1" vertex="1">
          <mxGeometry x="520" y="290" width="140" height="70" as="geometry" />
        </mxCell>
        <mxCell id="hxkwrvj69TzqVJ1bC2CE-3" value="&amp;lt;&amp;lt;extend&amp;gt;&amp;gt;" style="html=1;verticalAlign=bottom;endArrow=open;dashed=1;endSize=8;curved=0;rounded=0;exitX=1;exitY=0.5;exitDx=0;exitDy=0;entryX=0;entryY=0.5;entryDx=0;entryDy=0;" parent="1" source="YAIsz54ilgB3b6Jyin5Q-1" target="tnhfJ-DYFjJ0KOlyIkgA-2" edge="1">
          <mxGeometry relative="1" as="geometry">
            <mxPoint x="540" y="410" as="sourcePoint" />
            <mxPoint x="470" y="370" as="targetPoint" />
          </mxGeometry>
        </mxCell>
        <mxCell id="hxkwrvj69TzqVJ1bC2CE-4" value="&amp;lt;&amp;lt;extend&amp;gt;&amp;gt;" style="html=1;verticalAlign=bottom;endArrow=open;dashed=1;endSize=8;curved=0;rounded=0;exitX=1;exitY=0.5;exitDx=0;exitDy=0;entryX=0;entryY=0.5;entryDx=0;entryDy=0;" parent="1" source="YAIsz54ilgB3b6Jyin5Q-1" target="tnhfJ-DYFjJ0KOlyIkgA-3" edge="1">
          <mxGeometry relative="1" as="geometry">
            <mxPoint x="460" y="325" as="sourcePoint" />
            <mxPoint x="510" y="225" as="targetPoint" />
          </mxGeometry>
        </mxCell>
        <mxCell id="WqL_IVJ0iHIwm97kYtsG-1" value="&amp;lt;&amp;lt;include&amp;gt;&amp;gt;" style="html=1;verticalAlign=bottom;endArrow=open;dashed=1;endSize=8;curved=0;rounded=0;exitX=1;exitY=0.5;exitDx=0;exitDy=0;entryX=0;entryY=0.5;entryDx=0;entryDy=0;" parent="1" source="ZLZ6x9rpZW6JMdWh9and-2" target="ZLZ6x9rpZW6JMdWh9and-5" edge="1">
          <mxGeometry x="0.1131" y="1" relative="1" as="geometry">
            <mxPoint x="409" y="503" as="sourcePoint" />
            <mxPoint x="500" y="535" as="targetPoint" />
            <mxPoint as="offset" />
          </mxGeometry>
        </mxCell>
        <mxCell id="WqL_IVJ0iHIwm97kYtsG-2" value="&amp;lt;&amp;lt;include&amp;gt;&amp;gt;" style="html=1;verticalAlign=bottom;endArrow=open;dashed=1;endSize=8;curved=0;rounded=0;exitX=0.5;exitY=1;exitDx=0;exitDy=0;entryX=0.5;entryY=0;entryDx=0;entryDy=0;" parent="1" source="tnhfJ-DYFjJ0KOlyIkgA-3" target="ZLZ6x9rpZW6JMdWh9and-5" edge="1">
          <mxGeometry x="0.1131" y="1" relative="1" as="geometry">
            <mxPoint x="460" y="455" as="sourcePoint" />
            <mxPoint x="530" y="495" as="targetPoint" />
            <mxPoint as="offset" />
          </mxGeometry>
        </mxCell>
      </root>
    </mxGraphModel>
  </diagram>
  <diagram id="ZFQ2g-GJ3UNqNrIPvknR" name="고객센터">
    <mxGraphModel dx="1290" dy="522" grid="1" gridSize="10" guides="1" tooltips="1" connect="1" arrows="1" fold="1" page="1" pageScale="1" pageWidth="827" pageHeight="1169" math="0" shadow="0">
      <root>
        <mxCell id="0" />
        <mxCell id="1" parent="0" />
        <mxCell id="mAEPwiQ4LOV6ECLaFN8x-1" value="QnA" style="ellipse;whiteSpace=wrap;html=1;" parent="1" vertex="1">
          <mxGeometry x="320" y="210" width="140" height="70" as="geometry" />
        </mxCell>
        <mxCell id="mAEPwiQ4LOV6ECLaFN8x-2" value="관리자" style="shape=umlActor;verticalLabelPosition=bottom;verticalAlign=top;html=1;" parent="1" vertex="1">
          <mxGeometry x="570" y="280" width="30" height="60" as="geometry" />
        </mxCell>
        <mxCell id="mAEPwiQ4LOV6ECLaFN8x-3" value="" style="endArrow=open;endFill=1;endSize=12;html=1;rounded=0;entryX=0;entryY=0.5;entryDx=0;entryDy=0;" parent="1" target="mAEPwiQ4LOV6ECLaFN8x-1" edge="1">
          <mxGeometry width="160" relative="1" as="geometry">
            <mxPoint x="240" y="325" as="sourcePoint" />
            <mxPoint x="310" y="317" as="targetPoint" />
          </mxGeometry>
        </mxCell>
        <mxCell id="cHOutxQa7ukCqNYpK-c5-1" value="공지사항" style="ellipse;whiteSpace=wrap;html=1;" parent="1" vertex="1">
          <mxGeometry x="320" y="380" width="140" height="70" as="geometry" />
        </mxCell>
        <mxCell id="cHOutxQa7ukCqNYpK-c5-2" value="Actor" style="shape=umlActor;verticalLabelPosition=bottom;verticalAlign=top;html=1;" parent="1" vertex="1">
          <mxGeometry x="200" y="295" width="30" height="60" as="geometry" />
        </mxCell>
        <mxCell id="cHOutxQa7ukCqNYpK-c5-3" value="" style="endArrow=open;endFill=1;endSize=12;html=1;rounded=0;entryX=1;entryY=0.5;entryDx=0;entryDy=0;" parent="1" target="cHOutxQa7ukCqNYpK-c5-1" edge="1">
          <mxGeometry width="160" relative="1" as="geometry">
            <mxPoint x="560" y="320" as="sourcePoint" />
            <mxPoint x="330" y="255" as="targetPoint" />
          </mxGeometry>
        </mxCell>
        <mxCell id="cHOutxQa7ukCqNYpK-c5-4" value="" style="endArrow=open;endFill=1;endSize=12;html=1;rounded=0;entryX=1;entryY=0.5;entryDx=0;entryDy=0;" parent="1" target="mAEPwiQ4LOV6ECLaFN8x-1" edge="1">
          <mxGeometry width="160" relative="1" as="geometry">
            <mxPoint x="560" y="320" as="sourcePoint" />
            <mxPoint x="470" y="425" as="targetPoint" />
          </mxGeometry>
        </mxCell>
        <mxCell id="cHOutxQa7ukCqNYpK-c5-5" value="" style="endArrow=open;endFill=1;endSize=12;html=1;rounded=0;entryX=0;entryY=0.5;entryDx=0;entryDy=0;" parent="1" target="cHOutxQa7ukCqNYpK-c5-1" edge="1">
          <mxGeometry width="160" relative="1" as="geometry">
            <mxPoint x="240" y="330" as="sourcePoint" />
            <mxPoint x="470" y="255" as="targetPoint" />
          </mxGeometry>
        </mxCell>
      </root>
    </mxGraphModel>
  </diagram>
  <diagram id="ratZlffQ4fc7eDwuAQKd" name="알림">
    <mxGraphModel dx="1290" dy="522" grid="1" gridSize="10" guides="1" tooltips="1" connect="1" arrows="1" fold="1" page="1" pageScale="1" pageWidth="827" pageHeight="1169" math="0" shadow="0">
      <root>
        <mxCell id="0" />
        <mxCell id="1" parent="0" />
        <mxCell id="8tgn6fd3g4zAbqIJsPOA-1" value="알림 기능" style="ellipse;whiteSpace=wrap;html=1;" parent="1" vertex="1">
          <mxGeometry x="310" y="285" width="140" height="70" as="geometry" />
        </mxCell>
        <mxCell id="8tgn6fd3g4zAbqIJsPOA-2" value="Actor" style="shape=umlActor;verticalLabelPosition=bottom;verticalAlign=top;html=1;" parent="1" vertex="1">
          <mxGeometry x="190" y="285" width="30" height="60" as="geometry" />
        </mxCell>
        <mxCell id="8tgn6fd3g4zAbqIJsPOA-3" value="" style="endArrow=open;endFill=1;endSize=12;html=1;rounded=0;entryX=0;entryY=0.5;entryDx=0;entryDy=0;" parent="1" edge="1">
          <mxGeometry width="160" relative="1" as="geometry">
            <mxPoint x="220" y="313" as="sourcePoint" />
            <mxPoint x="310" y="317" as="targetPoint" />
          </mxGeometry>
        </mxCell>
        <mxCell id="RIr4SjL6SzTXhM7MIv-s-1" value="혈당 경고 알림" style="ellipse;whiteSpace=wrap;html=1;" parent="1" vertex="1">
          <mxGeometry x="540" y="190" width="140" height="70" as="geometry" />
        </mxCell>
        <mxCell id="vrldO2h2LbCX1oTVbGrE-1" value="&amp;lt;&amp;lt;extend&amp;gt;&amp;gt;" style="html=1;verticalAlign=bottom;endArrow=open;dashed=1;endSize=8;curved=0;rounded=0;entryX=0;entryY=1;entryDx=0;entryDy=0;exitX=1;exitY=0.5;exitDx=0;exitDy=0;" parent="1" source="8tgn6fd3g4zAbqIJsPOA-1" target="RIr4SjL6SzTXhM7MIv-s-1" edge="1">
          <mxGeometry relative="1" as="geometry">
            <mxPoint x="530" y="320" as="sourcePoint" />
            <mxPoint x="520" y="325" as="targetPoint" />
          </mxGeometry>
        </mxCell>
        <mxCell id="vrldO2h2LbCX1oTVbGrE-2" value="혈당 측정 알림" style="ellipse;whiteSpace=wrap;html=1;" parent="1" vertex="1">
          <mxGeometry x="540" y="310" width="140" height="70" as="geometry" />
        </mxCell>
        <mxCell id="vrldO2h2LbCX1oTVbGrE-3" value="투약알림" style="ellipse;whiteSpace=wrap;html=1;" parent="1" vertex="1">
          <mxGeometry x="540" y="420" width="140" height="70" as="geometry" />
        </mxCell>
        <mxCell id="vrldO2h2LbCX1oTVbGrE-4" value="운동 권장 알림" style="ellipse;whiteSpace=wrap;html=1;" parent="1" vertex="1">
          <mxGeometry x="310" y="420" width="140" height="70" as="geometry" />
        </mxCell>
        <mxCell id="vrldO2h2LbCX1oTVbGrE-5" value="식사 알림" style="ellipse;whiteSpace=wrap;html=1;" parent="1" vertex="1">
          <mxGeometry x="310" y="140" width="140" height="70" as="geometry" />
        </mxCell>
        <mxCell id="vrldO2h2LbCX1oTVbGrE-6" value="&amp;lt;&amp;lt;extend&amp;gt;&amp;gt;" style="html=1;verticalAlign=bottom;endArrow=open;dashed=1;endSize=8;curved=0;rounded=0;entryX=0.5;entryY=1;entryDx=0;entryDy=0;exitX=0.5;exitY=0;exitDx=0;exitDy=0;" parent="1" source="8tgn6fd3g4zAbqIJsPOA-1" target="vrldO2h2LbCX1oTVbGrE-5" edge="1">
          <mxGeometry relative="1" as="geometry">
            <mxPoint x="460" y="330" as="sourcePoint" />
            <mxPoint x="571" y="260" as="targetPoint" />
          </mxGeometry>
        </mxCell>
        <mxCell id="vrldO2h2LbCX1oTVbGrE-7" value="&amp;lt;&amp;lt;extend&amp;gt;&amp;gt;" style="html=1;verticalAlign=bottom;endArrow=open;dashed=1;endSize=8;curved=0;rounded=0;entryX=0;entryY=0.5;entryDx=0;entryDy=0;exitX=1;exitY=0.5;exitDx=0;exitDy=0;" parent="1" source="8tgn6fd3g4zAbqIJsPOA-1" target="vrldO2h2LbCX1oTVbGrE-2" edge="1">
          <mxGeometry relative="1" as="geometry">
            <mxPoint x="390" y="295" as="sourcePoint" />
            <mxPoint x="390" y="220" as="targetPoint" />
          </mxGeometry>
        </mxCell>
        <mxCell id="vrldO2h2LbCX1oTVbGrE-8" value="&amp;lt;&amp;lt;extend&amp;gt;&amp;gt;" style="html=1;verticalAlign=bottom;endArrow=open;dashed=1;endSize=8;curved=0;rounded=0;entryX=0;entryY=0.5;entryDx=0;entryDy=0;exitX=1;exitY=1;exitDx=0;exitDy=0;" parent="1" source="8tgn6fd3g4zAbqIJsPOA-1" target="vrldO2h2LbCX1oTVbGrE-3" edge="1">
          <mxGeometry relative="1" as="geometry">
            <mxPoint x="460" y="330" as="sourcePoint" />
            <mxPoint x="550" y="355" as="targetPoint" />
          </mxGeometry>
        </mxCell>
        <mxCell id="vrldO2h2LbCX1oTVbGrE-9" value="&amp;lt;&amp;lt;extend&amp;gt;&amp;gt;" style="html=1;verticalAlign=bottom;endArrow=open;dashed=1;endSize=8;curved=0;rounded=0;exitX=0.5;exitY=1;exitDx=0;exitDy=0;" parent="1" source="8tgn6fd3g4zAbqIJsPOA-1" target="vrldO2h2LbCX1oTVbGrE-4" edge="1">
          <mxGeometry relative="1" as="geometry">
            <mxPoint x="439" y="355" as="sourcePoint" />
            <mxPoint x="550" y="465" as="targetPoint" />
          </mxGeometry>
        </mxCell>
      </root>
    </mxGraphModel>
  </diagram>
  <diagram id="bko_-81f_z2BbicZZcLL" name="전체 시스템">
    <mxGraphModel dx="1290" dy="1691" grid="1" gridSize="10" guides="1" tooltips="1" connect="1" arrows="1" fold="1" page="1" pageScale="1" pageWidth="827" pageHeight="1169" math="0" shadow="0">
      <root>
        <mxCell id="0" />
        <mxCell id="1" parent="0" />
        <mxCell id="YfGttOG7-CwijwEwLqQF-1" value="알림 기능" style="ellipse;whiteSpace=wrap;html=1;" parent="1" vertex="1">
          <mxGeometry x="340" y="1665" width="140" height="70" as="geometry" />
        </mxCell>
        <mxCell id="YfGttOG7-CwijwEwLqQF-2" value="Actor" style="shape=umlActor;verticalLabelPosition=bottom;verticalAlign=top;html=1;" parent="1" vertex="1">
          <mxGeometry x="170" y="1665" width="30" height="60" as="geometry" />
        </mxCell>
        <mxCell id="YfGttOG7-CwijwEwLqQF-3" value="" style="endArrow=open;endFill=1;endSize=12;html=1;rounded=0;entryX=0;entryY=0.5;entryDx=0;entryDy=0;" parent="1" source="YfGttOG7-CwijwEwLqQF-2" edge="1">
          <mxGeometry width="160" relative="1" as="geometry">
            <mxPoint x="250" y="1693" as="sourcePoint" />
            <mxPoint x="340" y="1697" as="targetPoint" />
          </mxGeometry>
        </mxCell>
        <mxCell id="YfGttOG7-CwijwEwLqQF-7" value="투약알림" style="ellipse;whiteSpace=wrap;html=1;" parent="1" vertex="1">
          <mxGeometry x="570" y="1800" width="140" height="70" as="geometry" />
        </mxCell>
        <mxCell id="YfGttOG7-CwijwEwLqQF-8" value="운동 권장 알림" style="ellipse;whiteSpace=wrap;html=1;" parent="1" vertex="1">
          <mxGeometry x="340" y="1800" width="140" height="70" as="geometry" />
        </mxCell>
        <mxCell id="YfGttOG7-CwijwEwLqQF-12" value="&amp;lt;&amp;lt;extend&amp;gt;&amp;gt;" style="html=1;verticalAlign=bottom;endArrow=open;dashed=1;endSize=8;curved=0;rounded=0;entryX=0;entryY=0.5;entryDx=0;entryDy=0;exitX=1;exitY=1;exitDx=0;exitDy=0;" parent="1" source="YfGttOG7-CwijwEwLqQF-1" target="YfGttOG7-CwijwEwLqQF-7" edge="1">
          <mxGeometry relative="1" as="geometry">
            <mxPoint x="490" y="1710" as="sourcePoint" />
            <mxPoint x="580" y="1735" as="targetPoint" />
          </mxGeometry>
        </mxCell>
        <mxCell id="YfGttOG7-CwijwEwLqQF-13" value="&amp;lt;&amp;lt;extend&amp;gt;&amp;gt;" style="html=1;verticalAlign=bottom;endArrow=open;dashed=1;endSize=8;curved=0;rounded=0;exitX=0.5;exitY=1;exitDx=0;exitDy=0;" parent="1" source="YfGttOG7-CwijwEwLqQF-1" target="YfGttOG7-CwijwEwLqQF-8" edge="1">
          <mxGeometry relative="1" as="geometry">
            <mxPoint x="469" y="1735" as="sourcePoint" />
            <mxPoint x="580" y="1845" as="targetPoint" />
          </mxGeometry>
        </mxCell>
        <mxCell id="8HENjyBog6-miI-YmWKQ-9" value="QnA" style="ellipse;whiteSpace=wrap;html=1;" parent="1" vertex="1">
          <mxGeometry x="930" y="210" width="140" height="70" as="geometry" />
        </mxCell>
        <mxCell id="8HENjyBog6-miI-YmWKQ-10" value="관리자" style="shape=umlActor;verticalLabelPosition=bottom;verticalAlign=top;html=1;" parent="1" vertex="1">
          <mxGeometry x="1250" y="280" width="30" height="60" as="geometry" />
        </mxCell>
        <mxCell id="8HENjyBog6-miI-YmWKQ-11" value="" style="endArrow=open;endFill=1;endSize=12;html=1;rounded=0;exitX=0.5;exitY=0.5;exitDx=0;exitDy=0;exitPerimeter=0;" parent="1" source="8HENjyBog6-miI-YmWKQ-13" edge="1">
          <mxGeometry width="160" relative="1" as="geometry">
            <mxPoint x="850" y="325" as="sourcePoint" />
            <mxPoint x="1010" y="210" as="targetPoint" />
          </mxGeometry>
        </mxCell>
        <mxCell id="8HENjyBog6-miI-YmWKQ-12" value="공지사항" style="ellipse;whiteSpace=wrap;html=1;" parent="1" vertex="1">
          <mxGeometry x="930" y="380" width="140" height="70" as="geometry" />
        </mxCell>
        <mxCell id="8HENjyBog6-miI-YmWKQ-13" value="Actor" style="shape=umlActor;verticalLabelPosition=bottom;verticalAlign=top;html=1;" parent="1" vertex="1">
          <mxGeometry x="1230" y="130" width="20" height="45" as="geometry" />
        </mxCell>
        <mxCell id="8HENjyBog6-miI-YmWKQ-14" value="" style="endArrow=open;endFill=1;endSize=12;html=1;rounded=0;entryX=1;entryY=0.5;entryDx=0;entryDy=0;exitX=0.5;exitY=0.5;exitDx=0;exitDy=0;exitPerimeter=0;" parent="1" source="8HENjyBog6-miI-YmWKQ-10" target="8HENjyBog6-miI-YmWKQ-12" edge="1">
          <mxGeometry width="160" relative="1" as="geometry">
            <mxPoint x="1170" y="320" as="sourcePoint" />
            <mxPoint x="940" y="255" as="targetPoint" />
          </mxGeometry>
        </mxCell>
        <mxCell id="8HENjyBog6-miI-YmWKQ-15" value="" style="endArrow=open;endFill=1;endSize=12;html=1;rounded=0;entryX=1;entryY=0.5;entryDx=0;entryDy=0;exitX=0.5;exitY=0.5;exitDx=0;exitDy=0;exitPerimeter=0;" parent="1" source="8HENjyBog6-miI-YmWKQ-10" target="8HENjyBog6-miI-YmWKQ-9" edge="1">
          <mxGeometry width="160" relative="1" as="geometry">
            <mxPoint x="1170" y="320" as="sourcePoint" />
            <mxPoint x="1080" y="425" as="targetPoint" />
          </mxGeometry>
        </mxCell>
        <mxCell id="8HENjyBog6-miI-YmWKQ-16" value="" style="endArrow=open;endFill=1;endSize=12;html=1;rounded=0;entryX=0.764;entryY=-0.002;entryDx=0;entryDy=0;entryPerimeter=0;exitX=0.5;exitY=0.5;exitDx=0;exitDy=0;exitPerimeter=0;" parent="1" source="8HENjyBog6-miI-YmWKQ-13" target="8HENjyBog6-miI-YmWKQ-12" edge="1">
          <mxGeometry width="160" relative="1" as="geometry">
            <mxPoint x="850" y="330" as="sourcePoint" />
            <mxPoint x="1080" y="255" as="targetPoint" />
          </mxGeometry>
        </mxCell>
        <mxCell id="17qu4py3I2f3I0g4sc8_-1" value="Actor" style="shape=umlActor;verticalLabelPosition=bottom;verticalAlign=top;html=1;" parent="1" vertex="1">
          <mxGeometry x="150" y="30" width="30" height="60" as="geometry" />
        </mxCell>
        <mxCell id="17qu4py3I2f3I0g4sc8_-2" value="식단 메뉴 인식" style="ellipse;whiteSpace=wrap;html=1;" parent="1" vertex="1">
          <mxGeometry x="310" y="30" width="140" height="70" as="geometry" />
        </mxCell>
        <mxCell id="17qu4py3I2f3I0g4sc8_-3" value="메뉴 수동 입력" style="ellipse;whiteSpace=wrap;html=1;" parent="1" vertex="1">
          <mxGeometry x="290" y="190" width="140" height="70" as="geometry" />
        </mxCell>
        <mxCell id="17qu4py3I2f3I0g4sc8_-5" value="" style="endArrow=open;endFill=1;endSize=12;html=1;rounded=0;entryX=0;entryY=0.5;entryDx=0;entryDy=0;" parent="1" target="17qu4py3I2f3I0g4sc8_-2" edge="1">
          <mxGeometry width="160" relative="1" as="geometry">
            <mxPoint x="180" y="70" as="sourcePoint" />
            <mxPoint x="330" y="145" as="targetPoint" />
          </mxGeometry>
        </mxCell>
        <mxCell id="17qu4py3I2f3I0g4sc8_-6" value="" style="endArrow=open;endFill=1;endSize=12;html=1;rounded=0;entryX=0.051;entryY=0.354;entryDx=0;entryDy=0;entryPerimeter=0;" parent="1" edge="1">
          <mxGeometry width="160" relative="1" as="geometry">
            <mxPoint x="180" y="70" as="sourcePoint" />
            <mxPoint x="297.1400000000001" y="214.77999999999997" as="targetPoint" />
          </mxGeometry>
        </mxCell>
        <mxCell id="17qu4py3I2f3I0g4sc8_-10" value="&amp;lt;&amp;lt;extend&amp;gt;&amp;gt;" style="html=1;verticalAlign=bottom;endArrow=open;dashed=1;endSize=8;curved=0;rounded=0;exitX=0.5;exitY=1;exitDx=0;exitDy=0;entryX=0.5;entryY=0;entryDx=0;entryDy=0;" parent="1" source="17qu4py3I2f3I0g4sc8_-2" target="17qu4py3I2f3I0g4sc8_-3" edge="1">
          <mxGeometry relative="1" as="geometry">
            <mxPoint x="548" y="107" as="sourcePoint" />
            <mxPoint x="339" y="160" as="targetPoint" />
          </mxGeometry>
        </mxCell>
        <mxCell id="8OJ0UsyHnf4VRRJ5y3Z9-1" value="사용자" style="shape=umlActor;verticalLabelPosition=bottom;verticalAlign=top;html=1;" parent="1" vertex="1">
          <mxGeometry x="150" y="-220" width="30" height="60" as="geometry" />
        </mxCell>
        <mxCell id="8OJ0UsyHnf4VRRJ5y3Z9-2" value="회원가입&lt;br&gt;로그인/아웃" style="ellipse;whiteSpace=wrap;html=1;" parent="1" vertex="1">
          <mxGeometry x="320" y="-280" width="140" height="70" as="geometry" />
        </mxCell>
        <mxCell id="8OJ0UsyHnf4VRRJ5y3Z9-7" value="" style="endArrow=open;endFill=1;endSize=12;html=1;rounded=0;entryX=-0.014;entryY=0.631;entryDx=0;entryDy=0;entryPerimeter=0;" parent="1" target="8OJ0UsyHnf4VRRJ5y3Z9-2" edge="1">
          <mxGeometry width="160" relative="1" as="geometry">
            <mxPoint x="190" y="-190" as="sourcePoint" />
            <mxPoint x="630" y="-80" as="targetPoint" />
          </mxGeometry>
        </mxCell>
        <mxCell id="8OJ0UsyHnf4VRRJ5y3Z9-21" value="" style="swimlane;startSize=0;" parent="1" vertex="1">
          <mxGeometry x="270" y="-370" width="900" height="2330" as="geometry" />
        </mxCell>
        <mxCell id="dB4VfJpzrh-AgtSyKLIr-1" value="Actor" style="shape=umlActor;verticalLabelPosition=bottom;verticalAlign=top;html=1;" parent="8OJ0UsyHnf4VRRJ5y3Z9-21" vertex="1">
          <mxGeometry x="-120" y="860" width="30" height="60" as="geometry" />
        </mxCell>
        <mxCell id="dB4VfJpzrh-AgtSyKLIr-2" value="데이터 시각화" style="ellipse;whiteSpace=wrap;html=1;" parent="8OJ0UsyHnf4VRRJ5y3Z9-21" vertex="1">
          <mxGeometry x="30" y="860" width="140" height="70" as="geometry" />
        </mxCell>
        <mxCell id="dB4VfJpzrh-AgtSyKLIr-3" value="체중 변화량" style="ellipse;whiteSpace=wrap;html=1;" parent="8OJ0UsyHnf4VRRJ5y3Z9-21" vertex="1">
          <mxGeometry x="250" y="640" width="140" height="70" as="geometry" />
        </mxCell>
        <mxCell id="dB4VfJpzrh-AgtSyKLIr-4" value="일별 섭취 칼로리 변화량" style="ellipse;whiteSpace=wrap;html=1;" parent="8OJ0UsyHnf4VRRJ5y3Z9-21" vertex="1">
          <mxGeometry x="250" y="940" width="140" height="70" as="geometry" />
        </mxCell>
        <mxCell id="dB4VfJpzrh-AgtSyKLIr-5" value="영양소별 섭취 변화량" style="ellipse;whiteSpace=wrap;html=1;" parent="8OJ0UsyHnf4VRRJ5y3Z9-21" vertex="1">
          <mxGeometry x="250" y="740" width="140" height="70" as="geometry" />
        </mxCell>
        <mxCell id="dB4VfJpzrh-AgtSyKLIr-6" value="혈당 변화량" style="ellipse;whiteSpace=wrap;html=1;" parent="8OJ0UsyHnf4VRRJ5y3Z9-21" vertex="1">
          <mxGeometry x="250" y="840" width="140" height="70" as="geometry" />
        </mxCell>
        <mxCell id="dB4VfJpzrh-AgtSyKLIr-7" value="식단 이미지(달력)" style="ellipse;whiteSpace=wrap;html=1;" parent="8OJ0UsyHnf4VRRJ5y3Z9-21" vertex="1">
          <mxGeometry x="250" y="1040" width="140" height="70" as="geometry" />
        </mxCell>
        <mxCell id="dB4VfJpzrh-AgtSyKLIr-8" value="" style="endArrow=open;endFill=1;endSize=12;html=1;rounded=0;entryX=0;entryY=0.5;entryDx=0;entryDy=0;" parent="8OJ0UsyHnf4VRRJ5y3Z9-21" source="dB4VfJpzrh-AgtSyKLIr-1" target="dB4VfJpzrh-AgtSyKLIr-2" edge="1">
          <mxGeometry width="160" relative="1" as="geometry">
            <mxPoint x="-90" y="1065" as="sourcePoint" />
            <mxPoint x="40" y="1060" as="targetPoint" />
          </mxGeometry>
        </mxCell>
        <mxCell id="dB4VfJpzrh-AgtSyKLIr-9" value="&amp;lt;&amp;lt;include&amp;gt;&amp;gt;" style="html=1;verticalAlign=bottom;endArrow=open;dashed=1;endSize=8;curved=0;rounded=0;exitX=1;exitY=0.5;exitDx=0;exitDy=0;entryX=0;entryY=0.5;entryDx=0;entryDy=0;" parent="8OJ0UsyHnf4VRRJ5y3Z9-21" source="dB4VfJpzrh-AgtSyKLIr-2" target="dB4VfJpzrh-AgtSyKLIr-7" edge="1">
          <mxGeometry relative="1" as="geometry">
            <mxPoint x="120.34000000000015" y="1090" as="sourcePoint" />
            <mxPoint x="120" y="1174.42" as="targetPoint" />
          </mxGeometry>
        </mxCell>
        <mxCell id="dB4VfJpzrh-AgtSyKLIr-10" value="&amp;lt;&amp;lt;include&amp;gt;&amp;gt;" style="html=1;verticalAlign=bottom;endArrow=open;dashed=1;endSize=8;curved=0;rounded=0;exitX=1;exitY=0.5;exitDx=0;exitDy=0;entryX=0;entryY=0.5;entryDx=0;entryDy=0;" parent="8OJ0UsyHnf4VRRJ5y3Z9-21" source="dB4VfJpzrh-AgtSyKLIr-2" target="dB4VfJpzrh-AgtSyKLIr-4" edge="1">
          <mxGeometry relative="1" as="geometry">
            <mxPoint x="150" y="835" as="sourcePoint" />
            <mxPoint x="230" y="1015" as="targetPoint" />
          </mxGeometry>
        </mxCell>
        <mxCell id="dB4VfJpzrh-AgtSyKLIr-11" value="&amp;lt;&amp;lt;include&amp;gt;&amp;gt;" style="html=1;verticalAlign=bottom;endArrow=open;dashed=1;endSize=8;curved=0;rounded=0;exitX=1;exitY=0.5;exitDx=0;exitDy=0;entryX=0;entryY=0.5;entryDx=0;entryDy=0;" parent="8OJ0UsyHnf4VRRJ5y3Z9-21" source="dB4VfJpzrh-AgtSyKLIr-2" target="dB4VfJpzrh-AgtSyKLIr-6" edge="1">
          <mxGeometry relative="1" as="geometry">
            <mxPoint x="150" y="835" as="sourcePoint" />
            <mxPoint x="220" y="860" as="targetPoint" />
          </mxGeometry>
        </mxCell>
        <mxCell id="dB4VfJpzrh-AgtSyKLIr-12" value="&amp;lt;&amp;lt;include&amp;gt;&amp;gt;" style="html=1;verticalAlign=bottom;endArrow=open;dashed=1;endSize=8;curved=0;rounded=0;exitX=1;exitY=0.5;exitDx=0;exitDy=0;entryX=0;entryY=0.5;entryDx=0;entryDy=0;" parent="8OJ0UsyHnf4VRRJ5y3Z9-21" source="dB4VfJpzrh-AgtSyKLIr-2" target="dB4VfJpzrh-AgtSyKLIr-5" edge="1">
          <mxGeometry relative="1" as="geometry">
            <mxPoint x="150" y="835" as="sourcePoint" />
            <mxPoint x="230" y="815" as="targetPoint" />
          </mxGeometry>
        </mxCell>
        <mxCell id="dB4VfJpzrh-AgtSyKLIr-13" value="&amp;lt;&amp;lt;include&amp;gt;&amp;gt;" style="html=1;verticalAlign=bottom;endArrow=open;dashed=1;endSize=8;curved=0;rounded=0;exitX=1;exitY=0.5;exitDx=0;exitDy=0;entryX=0;entryY=0.5;entryDx=0;entryDy=0;" parent="8OJ0UsyHnf4VRRJ5y3Z9-21" source="dB4VfJpzrh-AgtSyKLIr-2" target="dB4VfJpzrh-AgtSyKLIr-3" edge="1">
          <mxGeometry relative="1" as="geometry">
            <mxPoint x="150" y="835" as="sourcePoint" />
            <mxPoint x="230" y="715" as="targetPoint" />
          </mxGeometry>
        </mxCell>
        <mxCell id="6GsoQrMgLKc9nUk-kLIG-1" value="Actor" style="shape=umlActor;verticalLabelPosition=bottom;verticalAlign=top;html=1;" parent="8OJ0UsyHnf4VRRJ5y3Z9-21" vertex="1">
          <mxGeometry x="-100" y="1320" width="30" height="60" as="geometry" />
        </mxCell>
        <mxCell id="6GsoQrMgLKc9nUk-kLIG-2" value="기록 기능" style="ellipse;whiteSpace=wrap;html=1;" parent="8OJ0UsyHnf4VRRJ5y3Z9-21" vertex="1">
          <mxGeometry x="20" y="1320" width="140" height="70" as="geometry" />
        </mxCell>
        <mxCell id="6GsoQrMgLKc9nUk-kLIG-3" value="" style="endArrow=open;endFill=1;endSize=12;html=1;rounded=0;entryX=0;entryY=0.5;entryDx=0;entryDy=0;" parent="8OJ0UsyHnf4VRRJ5y3Z9-21" source="6GsoQrMgLKc9nUk-kLIG-1" target="6GsoQrMgLKc9nUk-kLIG-2" edge="1">
          <mxGeometry width="160" relative="1" as="geometry">
            <mxPoint x="-70" y="1525" as="sourcePoint" />
            <mxPoint x="60" y="1520" as="targetPoint" />
          </mxGeometry>
        </mxCell>
        <mxCell id="6GsoQrMgLKc9nUk-kLIG-4" value="&amp;lt;&amp;lt;include&amp;gt;&amp;gt;" style="html=1;verticalAlign=bottom;endArrow=open;dashed=1;endSize=8;curved=0;rounded=0;exitX=1;exitY=0.5;exitDx=0;exitDy=0;entryX=0;entryY=0.5;entryDx=0;entryDy=0;" parent="8OJ0UsyHnf4VRRJ5y3Z9-21" source="6GsoQrMgLKc9nUk-kLIG-2" edge="1">
          <mxGeometry relative="1" as="geometry">
            <mxPoint x="170" y="1365" as="sourcePoint" />
            <mxPoint x="240" y="1335" as="targetPoint" />
          </mxGeometry>
        </mxCell>
        <mxCell id="6GsoQrMgLKc9nUk-kLIG-5" value="메모?" style="ellipse;whiteSpace=wrap;html=1;" parent="8OJ0UsyHnf4VRRJ5y3Z9-21" vertex="1">
          <mxGeometry x="50" y="1170" width="140" height="70" as="geometry" />
        </mxCell>
        <mxCell id="6GsoQrMgLKc9nUk-kLIG-6" value="당화혈색소 기록" style="ellipse;whiteSpace=wrap;html=1;" parent="8OJ0UsyHnf4VRRJ5y3Z9-21" vertex="1">
          <mxGeometry x="240" y="1290" width="140" height="70" as="geometry" />
        </mxCell>
        <mxCell id="6GsoQrMgLKc9nUk-kLIG-7" value="혈당 기록" style="ellipse;whiteSpace=wrap;html=1;" parent="8OJ0UsyHnf4VRRJ5y3Z9-21" vertex="1">
          <mxGeometry x="240" y="1380" width="140" height="70" as="geometry" />
        </mxCell>
        <mxCell id="6GsoQrMgLKc9nUk-kLIG-8" value="&amp;lt;&amp;lt;include&amp;gt;&amp;gt;" style="html=1;verticalAlign=bottom;endArrow=open;dashed=1;endSize=8;curved=0;rounded=0;exitX=0.923;exitY=0.897;exitDx=0;exitDy=0;entryX=0;entryY=0.5;entryDx=0;entryDy=0;exitPerimeter=0;" parent="8OJ0UsyHnf4VRRJ5y3Z9-21" edge="1">
          <mxGeometry x="0.1131" y="1" relative="1" as="geometry">
            <mxPoint x="149.2199999999998" y="1380" as="sourcePoint" />
            <mxPoint x="240" y="1412.21" as="targetPoint" />
            <mxPoint as="offset" />
          </mxGeometry>
        </mxCell>
        <mxCell id="6GsoQrMgLKc9nUk-kLIG-13" value="복용 약품 기록" style="ellipse;whiteSpace=wrap;html=1;" parent="8OJ0UsyHnf4VRRJ5y3Z9-21" vertex="1">
          <mxGeometry x="240" y="1210" width="140" height="70" as="geometry" />
        </mxCell>
        <mxCell id="6GsoQrMgLKc9nUk-kLIG-15" value="&amp;lt;&amp;lt;include&amp;gt;&amp;gt;" style="html=1;verticalAlign=bottom;endArrow=open;dashed=1;endSize=8;curved=0;rounded=0;exitX=1;exitY=0;exitDx=0;exitDy=0;entryX=0;entryY=0.5;entryDx=0;entryDy=0;" parent="8OJ0UsyHnf4VRRJ5y3Z9-21" source="6GsoQrMgLKc9nUk-kLIG-2" target="6GsoQrMgLKc9nUk-kLIG-13" edge="1">
          <mxGeometry relative="1" as="geometry">
            <mxPoint x="170" y="1365" as="sourcePoint" />
            <mxPoint x="250" y="1345" as="targetPoint" />
          </mxGeometry>
        </mxCell>
        <mxCell id="eNJozD2exN-qKBYB3ohU-1" value="정보 수정" style="ellipse;whiteSpace=wrap;html=1;" parent="8OJ0UsyHnf4VRRJ5y3Z9-21" vertex="1">
          <mxGeometry x="140" y="1620" width="140" height="70" as="geometry" />
        </mxCell>
        <mxCell id="eNJozD2exN-qKBYB3ohU-4" value="알림 수신 설정" style="ellipse;whiteSpace=wrap;html=1;" parent="8OJ0UsyHnf4VRRJ5y3Z9-21" vertex="1">
          <mxGeometry x="140" y="1520" width="140" height="70" as="geometry" />
        </mxCell>
        <mxCell id="eNJozD2exN-qKBYB3ohU-5" value="회원탈퇴" style="ellipse;whiteSpace=wrap;html=1;" parent="8OJ0UsyHnf4VRRJ5y3Z9-21" vertex="1">
          <mxGeometry x="140" y="1750" width="140" height="70" as="geometry" />
        </mxCell>
        <mxCell id="eNJozD2exN-qKBYB3ohU-7" value="" style="endArrow=open;endFill=1;endSize=12;html=1;rounded=0;entryX=0;entryY=0.5;entryDx=0;entryDy=0;" parent="8OJ0UsyHnf4VRRJ5y3Z9-21" target="eNJozD2exN-qKBYB3ohU-4" edge="1">
          <mxGeometry width="160" relative="1" as="geometry">
            <mxPoint x="-70" y="1650" as="sourcePoint" />
            <mxPoint x="150" y="1665" as="targetPoint" />
          </mxGeometry>
        </mxCell>
        <mxCell id="eNJozD2exN-qKBYB3ohU-2" value="Actor" style="shape=umlActor;verticalLabelPosition=bottom;verticalAlign=top;html=1;" parent="1" vertex="1">
          <mxGeometry x="170" y="1250" width="30" height="60" as="geometry" />
        </mxCell>
        <mxCell id="eNJozD2exN-qKBYB3ohU-6" value="" style="endArrow=open;endFill=1;endSize=12;html=1;rounded=0;entryX=0;entryY=0.5;entryDx=0;entryDy=0;" parent="1" source="eNJozD2exN-qKBYB3ohU-2" target="eNJozD2exN-qKBYB3ohU-1" edge="1">
          <mxGeometry width="160" relative="1" as="geometry">
            <mxPoint x="330" y="1293" as="sourcePoint" />
            <mxPoint x="420" y="1425" as="targetPoint" />
          </mxGeometry>
        </mxCell>
        <mxCell id="eNJozD2exN-qKBYB3ohU-3" value="" style="endArrow=open;endFill=1;endSize=12;html=1;rounded=0;entryX=0;entryY=0.5;entryDx=0;entryDy=0;" parent="1" source="eNJozD2exN-qKBYB3ohU-2" target="eNJozD2exN-qKBYB3ohU-5" edge="1">
          <mxGeometry width="160" relative="1" as="geometry">
            <mxPoint x="320" y="1283" as="sourcePoint" />
            <mxPoint x="410" y="1287" as="targetPoint" />
          </mxGeometry>
        </mxCell>
      </root>
    </mxGraphModel>
  </diagram>
  <diagram id="M60_BOgj0Pad61s9kk9I" name="리뉴얼">
    <mxGraphModel dx="1843" dy="1915" grid="1" gridSize="10" guides="1" tooltips="1" connect="1" arrows="1" fold="1" page="1" pageScale="1" pageWidth="827" pageHeight="1169" math="0" shadow="0">
      <root>
        <mxCell id="0" />
        <mxCell id="1" parent="0" />
        <mxCell id="ecsulkhPB6uxIMNE4Xmt-1" value="" style="swimlane;startSize=0;" parent="1" vertex="1">
          <mxGeometry x="250" y="-120" width="560" height="630" as="geometry" />
        </mxCell>
        <mxCell id="MssQaoRCKF5zUO0kZLct-1" value="회원가입&amp;amp;로그인" style="ellipse;whiteSpace=wrap;html=1;" parent="ecsulkhPB6uxIMNE4Xmt-1" vertex="1">
          <mxGeometry x="100" y="180" width="140" height="70" as="geometry" />
        </mxCell>
        <mxCell id="MssQaoRCKF5zUO0kZLct-7" value="건강 기록" style="ellipse;whiteSpace=wrap;html=1;" parent="ecsulkhPB6uxIMNE4Xmt-1" vertex="1">
          <mxGeometry x="220" y="380" width="140" height="70" as="geometry" />
        </mxCell>
        <mxCell id="MssQaoRCKF5zUO0kZLct-8" value="개인 설정" style="ellipse;whiteSpace=wrap;html=1;" parent="ecsulkhPB6uxIMNE4Xmt-1" vertex="1">
          <mxGeometry x="154" y="260" width="140" height="70" as="geometry" />
        </mxCell>
        <mxCell id="MssQaoRCKF5zUO0kZLct-9" value="정보 수정" style="ellipse;whiteSpace=wrap;html=1;" parent="ecsulkhPB6uxIMNE4Xmt-1" vertex="1">
          <mxGeometry x="170" y="90" width="140" height="70" as="geometry" />
        </mxCell>
        <mxCell id="MssQaoRCKF5zUO0kZLct-10" value="공지 및 QnA" style="ellipse;whiteSpace=wrap;html=1;" parent="ecsulkhPB6uxIMNE4Xmt-1" vertex="1">
          <mxGeometry x="30" y="410" width="140" height="70" as="geometry" />
        </mxCell>
        <mxCell id="MssQaoRCKF5zUO0kZLct-6" value="시각화" style="ellipse;whiteSpace=wrap;html=1;" parent="ecsulkhPB6uxIMNE4Xmt-1" vertex="1">
          <mxGeometry x="260" y="510" width="140" height="70" as="geometry" />
        </mxCell>
        <mxCell id="ldnW7d31ZblNEHDu-LZm-2" value="정보 저장" style="ellipse;whiteSpace=wrap;html=1;" parent="ecsulkhPB6uxIMNE4Xmt-1" vertex="1">
          <mxGeometry x="330" y="175" width="120" height="80" as="geometry" />
        </mxCell>
        <mxCell id="ldnW7d31ZblNEHDu-LZm-4" value="&amp;lt;&amp;lt;include&amp;gt;&amp;gt;" style="html=1;verticalAlign=bottom;endArrow=open;dashed=1;endSize=8;curved=0;rounded=0;exitX=1;exitY=0.5;exitDx=0;exitDy=0;entryX=0;entryY=0.5;entryDx=0;entryDy=0;" parent="ecsulkhPB6uxIMNE4Xmt-1" source="MssQaoRCKF5zUO0kZLct-1" target="ldnW7d31ZblNEHDu-LZm-2" edge="1">
          <mxGeometry x="0.1091" y="1" relative="1" as="geometry">
            <mxPoint x="730" y="450" as="sourcePoint" />
            <mxPoint x="680" y="550" as="targetPoint" />
            <mxPoint as="offset" />
          </mxGeometry>
        </mxCell>
        <mxCell id="ldnW7d31ZblNEHDu-LZm-7" value="&amp;lt;&amp;lt;include&amp;gt;&amp;gt;" style="html=1;verticalAlign=bottom;endArrow=open;dashed=1;endSize=8;curved=0;rounded=0;exitX=0.966;exitY=0.346;exitDx=0;exitDy=0;entryX=0.353;entryY=0.985;entryDx=0;entryDy=0;exitPerimeter=0;entryPerimeter=0;" parent="ecsulkhPB6uxIMNE4Xmt-1" source="MssQaoRCKF5zUO0kZLct-8" target="ldnW7d31ZblNEHDu-LZm-2" edge="1">
          <mxGeometry x="0.1091" y="1" relative="1" as="geometry">
            <mxPoint x="220" y="185" as="sourcePoint" />
            <mxPoint x="380" y="185" as="targetPoint" />
            <mxPoint as="offset" />
          </mxGeometry>
        </mxCell>
        <mxCell id="ldnW7d31ZblNEHDu-LZm-8" value="&amp;lt;&amp;lt;include&amp;gt;&amp;gt;" style="html=1;verticalAlign=bottom;endArrow=open;dashed=1;endSize=8;curved=0;rounded=0;exitX=0.986;exitY=0.671;exitDx=0;exitDy=0;entryX=0.38;entryY=0.015;entryDx=0;entryDy=0;exitPerimeter=0;entryPerimeter=0;" parent="ecsulkhPB6uxIMNE4Xmt-1" source="MssQaoRCKF5zUO0kZLct-9" target="ldnW7d31ZblNEHDu-LZm-2" edge="1">
          <mxGeometry x="0.1091" y="1" relative="1" as="geometry">
            <mxPoint x="355" y="294" as="sourcePoint" />
            <mxPoint x="422" y="224" as="targetPoint" />
            <mxPoint as="offset" />
          </mxGeometry>
        </mxCell>
        <mxCell id="MssQaoRCKF5zUO0kZLct-5" value="음식 인식" style="ellipse;whiteSpace=wrap;html=1;" parent="ecsulkhPB6uxIMNE4Xmt-1" vertex="1">
          <mxGeometry x="350" y="30" width="140" height="70" as="geometry" />
        </mxCell>
        <mxCell id="ecsulkhPB6uxIMNE4Xmt-2" value="사용자" style="shape=umlActor;verticalLabelPosition=bottom;verticalAlign=top;html=1;outlineConnect=0;" parent="1" vertex="1">
          <mxGeometry x="180" y="-70" width="30" height="60" as="geometry" />
        </mxCell>
        <mxCell id="3RIdyxNNRmY2BrgUADb7-1" value="" style="endArrow=none;html=1;rounded=0;exitX=0;exitY=0.5;exitDx=0;exitDy=0;" edge="1" parent="1" source="MssQaoRCKF5zUO0kZLct-8">
          <mxGeometry width="50" height="50" relative="1" as="geometry">
            <mxPoint x="630" y="200" as="sourcePoint" />
            <mxPoint x="210" y="-40" as="targetPoint" />
          </mxGeometry>
        </mxCell>
        <mxCell id="3RIdyxNNRmY2BrgUADb7-2" value="" style="endArrow=none;html=1;rounded=0;exitX=0;exitY=0.5;exitDx=0;exitDy=0;" edge="1" parent="1" source="MssQaoRCKF5zUO0kZLct-1">
          <mxGeometry width="50" height="50" relative="1" as="geometry">
            <mxPoint x="530" y="115" as="sourcePoint" />
            <mxPoint x="210" y="-40" as="targetPoint" />
          </mxGeometry>
        </mxCell>
        <mxCell id="3RIdyxNNRmY2BrgUADb7-3" value="" style="endArrow=none;html=1;rounded=0;exitX=0;exitY=0.5;exitDx=0;exitDy=0;" edge="1" parent="1" source="MssQaoRCKF5zUO0kZLct-9">
          <mxGeometry width="50" height="50" relative="1" as="geometry">
            <mxPoint x="390" y="-5" as="sourcePoint" />
            <mxPoint x="210" y="-40" as="targetPoint" />
          </mxGeometry>
        </mxCell>
        <mxCell id="3RIdyxNNRmY2BrgUADb7-5" value="관리자&lt;br&gt;" style="shape=umlActor;verticalLabelPosition=bottom;verticalAlign=top;html=1;outlineConnect=0;" vertex="1" parent="1">
          <mxGeometry x="90" y="290" width="30" height="60" as="geometry" />
        </mxCell>
        <mxCell id="3RIdyxNNRmY2BrgUADb7-6" value="DB" style="shape=umlActor;verticalLabelPosition=bottom;verticalAlign=top;html=1;outlineConnect=0;" vertex="1" parent="1">
          <mxGeometry x="860" y="200" width="30" height="60" as="geometry" />
        </mxCell>
        <mxCell id="3RIdyxNNRmY2BrgUADb7-8" value="" style="endArrow=none;html=1;rounded=0;entryX=1;entryY=0.5;entryDx=0;entryDy=0;exitX=0.5;exitY=0.5;exitDx=0;exitDy=0;exitPerimeter=0;" edge="1" parent="1" source="3RIdyxNNRmY2BrgUADb7-6" target="ldnW7d31ZblNEHDu-LZm-2">
          <mxGeometry width="50" height="50" relative="1" as="geometry">
            <mxPoint x="630" as="sourcePoint" />
            <mxPoint x="680" y="-50" as="targetPoint" />
          </mxGeometry>
        </mxCell>
        <mxCell id="3RIdyxNNRmY2BrgUADb7-9" value="" style="endArrow=none;html=1;rounded=0;exitX=0;exitY=0.5;exitDx=0;exitDy=0;" edge="1" parent="1" source="MssQaoRCKF5zUO0kZLct-7">
          <mxGeometry width="50" height="50" relative="1" as="geometry">
            <mxPoint x="630" y="400" as="sourcePoint" />
            <mxPoint x="210" y="-40" as="targetPoint" />
          </mxGeometry>
        </mxCell>
        <mxCell id="3RIdyxNNRmY2BrgUADb7-10" value="" style="endArrow=none;html=1;rounded=0;exitX=0;exitY=0.5;exitDx=0;exitDy=0;entryX=1;entryY=0.3333333333333333;entryDx=0;entryDy=0;entryPerimeter=0;" edge="1" parent="1" source="MssQaoRCKF5zUO0kZLct-6" target="ecsulkhPB6uxIMNE4Xmt-2">
          <mxGeometry width="50" height="50" relative="1" as="geometry">
            <mxPoint x="330" y="555" as="sourcePoint" />
            <mxPoint x="220" y="-30" as="targetPoint" />
          </mxGeometry>
        </mxCell>
        <mxCell id="3RIdyxNNRmY2BrgUADb7-11" value="" style="endArrow=none;html=1;rounded=0;entryX=0.5;entryY=0.5;entryDx=0;entryDy=0;entryPerimeter=0;exitX=0;exitY=0.5;exitDx=0;exitDy=0;" edge="1" parent="1" source="MssQaoRCKF5zUO0kZLct-10" target="3RIdyxNNRmY2BrgUADb7-5">
          <mxGeometry width="50" height="50" relative="1" as="geometry">
            <mxPoint x="630" y="360" as="sourcePoint" />
            <mxPoint x="680" y="310" as="targetPoint" />
          </mxGeometry>
        </mxCell>
        <mxCell id="DzK6mVo5QJFHJtHsXRq0-3" value="" style="endArrow=none;html=1;rounded=0;entryX=0;entryY=0.5;entryDx=0;entryDy=0;" edge="1" parent="1" target="MssQaoRCKF5zUO0kZLct-5">
          <mxGeometry width="50" height="50" relative="1" as="geometry">
            <mxPoint x="210" y="-40" as="sourcePoint" />
            <mxPoint x="680" y="110" as="targetPoint" />
          </mxGeometry>
        </mxCell>
        <mxCell id="DzK6mVo5QJFHJtHsXRq0-5" value="" style="endArrow=none;html=1;rounded=0;entryX=0.5;entryY=0.5;entryDx=0;entryDy=0;exitX=0.997;exitY=0.351;exitDx=0;exitDy=0;exitPerimeter=0;entryPerimeter=0;" edge="1" parent="1" source="MssQaoRCKF5zUO0kZLct-6" target="3RIdyxNNRmY2BrgUADb7-6">
          <mxGeometry width="50" height="50" relative="1" as="geometry">
            <mxPoint x="885" y="240" as="sourcePoint" />
            <mxPoint x="710" y="105" as="targetPoint" />
          </mxGeometry>
        </mxCell>
        <mxCell id="DzK6mVo5QJFHJtHsXRq0-6" value="&amp;lt;&amp;lt;include&amp;gt;&amp;gt;" style="html=1;verticalAlign=bottom;endArrow=open;dashed=1;endSize=8;curved=0;rounded=0;exitX=0.914;exitY=0.174;exitDx=0;exitDy=0;exitPerimeter=0;" edge="1" parent="1" source="MssQaoRCKF5zUO0kZLct-7">
          <mxGeometry x="0.1091" y="1" relative="1" as="geometry">
            <mxPoint x="549" y="174" as="sourcePoint" />
            <mxPoint x="632" y="144" as="targetPoint" />
            <mxPoint as="offset" />
          </mxGeometry>
        </mxCell>
      </root>
    </mxGraphModel>
  </diagram>
  <diagram id="7OHlebDLYC2OsPbO16e1" name="lastone">
    <mxGraphModel dx="1674" dy="1907" grid="1" gridSize="10" guides="1" tooltips="1" connect="1" arrows="1" fold="1" page="1" pageScale="1" pageWidth="827" pageHeight="1169" math="0" shadow="0">
      <root>
        <mxCell id="0" />
        <mxCell id="1" parent="0" />
        <mxCell id="6cEuJr3EjpjiT_-MTKAc-1" value="" style="swimlane;startSize=0;" parent="1" vertex="1">
          <mxGeometry x="260" y="-110" width="560" height="630" as="geometry" />
        </mxCell>
        <mxCell id="6cEuJr3EjpjiT_-MTKAc-2" value="로그인" style="ellipse;whiteSpace=wrap;html=1;" parent="6cEuJr3EjpjiT_-MTKAc-1" vertex="1">
          <mxGeometry x="310" y="110" width="140" height="70" as="geometry" />
        </mxCell>
        <mxCell id="6cEuJr3EjpjiT_-MTKAc-3" value="건강 기록" style="ellipse;whiteSpace=wrap;html=1;" parent="6cEuJr3EjpjiT_-MTKAc-1" vertex="1">
          <mxGeometry x="30" y="350" width="140" height="70" as="geometry" />
        </mxCell>
        <mxCell id="6cEuJr3EjpjiT_-MTKAc-6" value="공지 및 질의응답" style="ellipse;whiteSpace=wrap;html=1;" parent="6cEuJr3EjpjiT_-MTKAc-1" vertex="1">
          <mxGeometry x="30" y="440" width="140" height="70" as="geometry" />
        </mxCell>
        <mxCell id="6cEuJr3EjpjiT_-MTKAc-7" value="시각화" style="ellipse;whiteSpace=wrap;html=1;" parent="6cEuJr3EjpjiT_-MTKAc-1" vertex="1">
          <mxGeometry x="320" y="360" width="140" height="70" as="geometry" />
        </mxCell>
        <mxCell id="6cEuJr3EjpjiT_-MTKAc-12" value="음식 업로드" style="ellipse;whiteSpace=wrap;html=1;" parent="6cEuJr3EjpjiT_-MTKAc-1" vertex="1">
          <mxGeometry x="130" y="180" width="140" height="70" as="geometry" />
        </mxCell>
        <mxCell id="6cEuJr3EjpjiT_-MTKAc-27" value="알림 기능" style="ellipse;whiteSpace=wrap;html=1;" parent="6cEuJr3EjpjiT_-MTKAc-1" vertex="1">
          <mxGeometry x="140" y="20" width="140" height="70" as="geometry" />
        </mxCell>
        <mxCell id="6cEuJr3EjpjiT_-MTKAc-28" value="음식 분석" style="ellipse;whiteSpace=wrap;html=1;" parent="6cEuJr3EjpjiT_-MTKAc-1" vertex="1">
          <mxGeometry x="330" y="240" width="140" height="70" as="geometry" />
        </mxCell>
        <mxCell id="6cEuJr3EjpjiT_-MTKAc-33" style="edgeStyle=orthogonalEdgeStyle;rounded=0;orthogonalLoop=1;jettySize=auto;html=1;exitX=0.5;exitY=1;exitDx=0;exitDy=0;" parent="6cEuJr3EjpjiT_-MTKAc-1" source="6cEuJr3EjpjiT_-MTKAc-2" target="6cEuJr3EjpjiT_-MTKAc-2" edge="1">
          <mxGeometry relative="1" as="geometry" />
        </mxCell>
        <mxCell id="j8zeX4KEAE4h0QACnLHG-1" value="&lt;span style=&quot;color: rgb(0, 0, 0); font-family: Helvetica; font-size: 11px; font-style: normal; font-variant-ligatures: normal; font-variant-caps: normal; font-weight: 400; letter-spacing: normal; orphans: 2; text-align: center; text-indent: 0px; text-transform: none; widows: 2; word-spacing: 0px; -webkit-text-stroke-width: 0px; background-color: rgb(255, 255, 255); text-decoration-thickness: initial; text-decoration-style: initial; text-decoration-color: initial; float: none; display: inline !important;&quot;&gt;&amp;lt;&amp;lt;include&amp;gt;&amp;gt;&lt;/span&gt;" style="html=1;verticalAlign=bottom;endArrow=open;dashed=1;endSize=8;curved=0;rounded=0;exitX=1;exitY=0.5;exitDx=0;exitDy=0;entryX=0;entryY=0;entryDx=0;entryDy=0;" parent="6cEuJr3EjpjiT_-MTKAc-1" source="6cEuJr3EjpjiT_-MTKAc-12" target="6cEuJr3EjpjiT_-MTKAc-28" edge="1">
          <mxGeometry x="0.1099" y="1" relative="1" as="geometry">
            <mxPoint x="289" y="284" as="sourcePoint" />
            <mxPoint x="350" y="260" as="targetPoint" />
            <mxPoint as="offset" />
          </mxGeometry>
        </mxCell>
        <mxCell id="j8zeX4KEAE4h0QACnLHG-2" value="&lt;span style=&quot;color: rgb(0, 0, 0); font-family: Helvetica; font-size: 11px; font-style: normal; font-variant-ligatures: normal; font-variant-caps: normal; font-weight: 400; letter-spacing: normal; orphans: 2; text-align: center; text-indent: 0px; text-transform: none; widows: 2; word-spacing: 0px; -webkit-text-stroke-width: 0px; background-color: rgb(255, 255, 255); text-decoration-thickness: initial; text-decoration-style: initial; text-decoration-color: initial; float: none; display: inline !important;&quot;&gt;&amp;lt;&amp;lt;extend&amp;gt;&amp;gt;&lt;/span&gt;" style="html=1;verticalAlign=bottom;endArrow=open;dashed=1;endSize=8;curved=0;rounded=0;entryX=0.5;entryY=1;entryDx=0;entryDy=0;exitX=0.5;exitY=0;exitDx=0;exitDy=0;" parent="6cEuJr3EjpjiT_-MTKAc-1" source="6cEuJr3EjpjiT_-MTKAc-7" target="6cEuJr3EjpjiT_-MTKAc-28" edge="1">
          <mxGeometry x="-0.1538" y="-6" relative="1" as="geometry">
            <mxPoint x="280" y="225" as="sourcePoint" />
            <mxPoint x="339" y="272" as="targetPoint" />
            <mxPoint as="offset" />
          </mxGeometry>
        </mxCell>
        <mxCell id="j8zeX4KEAE4h0QACnLHG-14" value="&amp;lt;&amp;lt;extend&amp;gt;&amp;gt;" style="html=1;verticalAlign=bottom;endArrow=open;dashed=1;endSize=8;curved=0;rounded=0;exitX=0;exitY=0.5;exitDx=0;exitDy=0;entryX=1;entryY=0.5;entryDx=0;entryDy=0;" parent="6cEuJr3EjpjiT_-MTKAc-1" source="6cEuJr3EjpjiT_-MTKAc-7" target="6cEuJr3EjpjiT_-MTKAc-3" edge="1">
          <mxGeometry x="0.1092" y="1" relative="1" as="geometry">
            <mxPoint x="280" y="225" as="sourcePoint" />
            <mxPoint x="339" y="272" as="targetPoint" />
            <mxPoint as="offset" />
          </mxGeometry>
        </mxCell>
        <mxCell id="6cEuJr3EjpjiT_-MTKAc-13" value="사용자" style="shape=umlActor;verticalLabelPosition=bottom;verticalAlign=top;html=1;outlineConnect=0;" parent="1" vertex="1">
          <mxGeometry x="180" y="-70" width="30" height="60" as="geometry" />
        </mxCell>
        <mxCell id="6cEuJr3EjpjiT_-MTKAc-14" value="" style="endArrow=none;html=1;rounded=0;exitX=0;exitY=0;exitDx=0;exitDy=0;" parent="1" source="6cEuJr3EjpjiT_-MTKAc-3" edge="1">
          <mxGeometry width="50" height="50" relative="1" as="geometry">
            <mxPoint x="404.000000000005" y="175" as="sourcePoint" />
            <mxPoint x="210" y="-40" as="targetPoint" />
          </mxGeometry>
        </mxCell>
        <mxCell id="6cEuJr3EjpjiT_-MTKAc-15" value="" style="endArrow=none;html=1;rounded=0;exitX=0.5;exitY=0;exitDx=0;exitDy=0;" parent="1" source="6cEuJr3EjpjiT_-MTKAc-2" edge="1">
          <mxGeometry width="50" height="50" relative="1" as="geometry">
            <mxPoint x="530" y="115" as="sourcePoint" />
            <mxPoint x="210" y="-40" as="targetPoint" />
          </mxGeometry>
        </mxCell>
        <mxCell id="6cEuJr3EjpjiT_-MTKAc-17" value="관리자&lt;br&gt;" style="shape=umlActor;verticalLabelPosition=bottom;verticalAlign=top;html=1;outlineConnect=0;" parent="1" vertex="1">
          <mxGeometry x="180" y="320" width="30" height="60" as="geometry" />
        </mxCell>
        <mxCell id="6cEuJr3EjpjiT_-MTKAc-18" value="DB" style="shape=umlActor;verticalLabelPosition=bottom;verticalAlign=top;html=1;outlineConnect=0;" parent="1" vertex="1">
          <mxGeometry x="860" y="200" width="30" height="60" as="geometry" />
        </mxCell>
        <mxCell id="6cEuJr3EjpjiT_-MTKAc-19" value="" style="endArrow=none;html=1;rounded=0;entryX=1;entryY=0.5;entryDx=0;entryDy=0;exitX=0.5;exitY=0.5;exitDx=0;exitDy=0;exitPerimeter=0;" parent="1" source="6cEuJr3EjpjiT_-MTKAc-18" target="6cEuJr3EjpjiT_-MTKAc-2" edge="1">
          <mxGeometry width="50" height="50" relative="1" as="geometry">
            <mxPoint x="630" as="sourcePoint" />
            <mxPoint x="699.9999999999932" y="95.00000000000023" as="targetPoint" />
          </mxGeometry>
        </mxCell>
        <mxCell id="6cEuJr3EjpjiT_-MTKAc-22" value="" style="endArrow=none;html=1;rounded=0;entryX=0.5;entryY=0.5;entryDx=0;entryDy=0;entryPerimeter=0;exitX=0;exitY=0.5;exitDx=0;exitDy=0;" parent="1" source="6cEuJr3EjpjiT_-MTKAc-6" target="6cEuJr3EjpjiT_-MTKAc-17" edge="1">
          <mxGeometry width="50" height="50" relative="1" as="geometry">
            <mxPoint x="630" y="360" as="sourcePoint" />
            <mxPoint x="680" y="310" as="targetPoint" />
          </mxGeometry>
        </mxCell>
        <mxCell id="6cEuJr3EjpjiT_-MTKAc-23" value="" style="endArrow=none;html=1;rounded=0;entryX=0;entryY=0.5;entryDx=0;entryDy=0;" parent="1" target="6cEuJr3EjpjiT_-MTKAc-12" edge="1">
          <mxGeometry width="50" height="50" relative="1" as="geometry">
            <mxPoint x="210" y="-40" as="sourcePoint" />
            <mxPoint x="680" y="110" as="targetPoint" />
          </mxGeometry>
        </mxCell>
        <mxCell id="6cEuJr3EjpjiT_-MTKAc-24" value="" style="endArrow=none;html=1;rounded=0;entryX=0.5;entryY=0.5;entryDx=0;entryDy=0;exitX=0.997;exitY=0.351;exitDx=0;exitDy=0;exitPerimeter=0;entryPerimeter=0;" parent="1" source="6cEuJr3EjpjiT_-MTKAc-7" target="6cEuJr3EjpjiT_-MTKAc-18" edge="1">
          <mxGeometry width="50" height="50" relative="1" as="geometry">
            <mxPoint x="885" y="240" as="sourcePoint" />
            <mxPoint x="710" y="105" as="targetPoint" />
          </mxGeometry>
        </mxCell>
        <mxCell id="6cEuJr3EjpjiT_-MTKAc-26" value="" style="endArrow=none;html=1;rounded=0;entryX=1;entryY=0.5;entryDx=0;entryDy=0;exitX=0.5;exitY=0.5;exitDx=0;exitDy=0;exitPerimeter=0;" parent="1" source="6cEuJr3EjpjiT_-MTKAc-18" target="6cEuJr3EjpjiT_-MTKAc-28" edge="1">
          <mxGeometry width="50" height="50" relative="1" as="geometry">
            <mxPoint x="190" y="220" as="sourcePoint" />
            <mxPoint x="240" y="170" as="targetPoint" />
          </mxGeometry>
        </mxCell>
        <mxCell id="6cEuJr3EjpjiT_-MTKAc-32" value="" style="endArrow=none;html=1;rounded=0;entryX=0;entryY=0.5;entryDx=0;entryDy=0;" parent="1" target="6cEuJr3EjpjiT_-MTKAc-27" edge="1">
          <mxGeometry width="50" height="50" relative="1" as="geometry">
            <mxPoint x="210" y="-40" as="sourcePoint" />
            <mxPoint x="240" y="170" as="targetPoint" />
          </mxGeometry>
        </mxCell>
      </root>
    </mxGraphModel>
  </diagram>
</mxfile>
